<?xml version="1.0" encoding="utf-8"?>
<!-- Generator: Adobe Illustrator 16.0.0, SVG Export Plug-In . SVG Version: 6.00 Build 0)  -->
<!DOCTYPE svg PUBLIC "-//W3C//DTD SVG 1.1//EN" "http://www.w3.org/Graphics/SVG/1.1/DTD/svg11.dtd">
<svg version="1.1" id="Layer_1" xmlns="http://www.w3.org/2000/svg" xmlns:xlink="http://www.w3.org/1999/xlink" x="0px" y="0px"
	 preserveAspectRatio="xMinyMin meet" viewBox="-0.023 280.1 480 360.208" enable-background="new -0.023 280.1 480 360.208"
	 xml:space="preserve">
<g>
	<g>
		<path fill="#BBBBBB" d="M161.82,414.481v210.771H15.032V414.481H161.82 M163.695,399.426H16.907
			c-8.315,0-16.93,5.535-16.93,13.849v210.772c0,8.315,8.615,16.261,16.93,16.261h146.788c8.315,0,13.181-7.945,13.181-16.261
			V413.274C176.875,404.962,172.009,399.426,163.695,399.426L163.695,399.426z"/>
	</g>
	<g>
		<path fill="#BBBBBB" d="M143,595.143H33.852c-2.08,0-3.764-1.684-3.764-3.764V448.354c0-2.08,1.684-3.764,3.764-3.764h109.149
			c2.081,0,3.764,1.684,3.764,3.764v143.024C146.764,593.46,145.081,595.143,143,595.143z M37.615,587.615h101.622V452.119H37.615
			V587.615z"/>
	</g>
	<g>
		<path fill="#BBBBBB" d="M45.143,474.702c-2.08,0-3.764-1.685-3.764-3.765v-11.291c0-2.08,1.684-3.765,3.764-3.765H71.49
			c2.081,0,3.764,1.685,3.764,3.765c0,2.081-1.684,3.764-3.764,3.764H48.907v7.527C48.906,473.019,47.223,474.702,45.143,474.702z"
			/>
	</g>
	<g>
		<path fill="#BBBBBB" d="M94.071,463.41H82.781c-2.08,0-3.763-1.683-3.763-3.764c0-2.08,1.684-3.765,3.763-3.765h11.291
			c2.081,0,3.764,1.685,3.764,3.765C97.834,461.728,96.152,463.41,94.071,463.41z"/>
	</g>
	<g>
		<path fill="#BBBBBB" d="M105.362,433.3H71.489c-2.08,0-3.764-1.684-3.764-3.764s1.684-3.765,3.764-3.765h33.873
			c2.081,0,3.764,1.685,3.764,3.765C109.126,431.616,107.442,433.3,105.362,433.3z"/>
	</g>
	<g>
		<path fill="#BBBBBB" d="M90.3,617.49c-5.708,0-10.349-4.646-10.349-10.351c0-5.712,4.643-10.351,10.349-10.351
			c5.711,0,10.35,4.639,10.35,10.351C100.65,612.845,96.012,617.49,90.3,617.49z M90.3,604.317c-1.552,0-2.822,1.265-2.822,2.822
			c0,1.551,1.27,2.822,2.822,2.822c1.558,0,2.823-1.271,2.823-2.822C93.123,605.582,91.858,604.317,90.3,604.317z"/>
	</g>
</g>
<g>
	<g>
		<path fill="#BBBBBB" d="M417.259,485.36H388.75c-3.15,0-5.701-2.551-5.701-5.701c0-3.152,2.551-5.701,5.701-5.701h22.808v-11.402
			c0-3.15,2.55-5.701,5.701-5.701s5.702,2.551,5.702,5.701v17.104C422.961,482.81,420.41,485.36,417.259,485.36z"/>
	</g>
	<g>
		<path fill="#BBBBBB" d="M417.259,451.152c-3.151,0-5.701-2.55-5.701-5.701v-74.123c0-3.15,2.55-5.701,5.701-5.701
			s5.702,2.551,5.702,5.701v74.123C422.961,448.602,420.41,451.152,417.259,451.152z"/>
	</g>
	<g>
		<path fill="#BBBBBB" d="M303.225,519.57h-5.699c-3.15,0-5.701-2.551-5.701-5.701c0-3.152,2.551-5.702,5.701-5.702h5.699
			c3.15,0,5.701,2.55,5.701,5.702C308.926,517.02,306.375,519.57,303.225,519.57z"/>
	</g>
	<path fill="#BBBBBB" d="M377.347,616.499h-22.761c-3.202-28.82-27.706-51.315-57.367-51.315c-29.662,0-54.162,22.495-57.365,51.315
		H212c-6.298,0-11.404,5.111-11.404,11.402c0,6.304,5.106,11.404,11.404,11.404h165.347c6.304,0,11.402-5.102,11.402-11.404
		C388.749,621.61,383.65,616.499,377.347,616.499z M297.219,587.99c17.066,0,31.303,12.309,34.325,28.509h-68.646
		C265.919,600.299,280.156,587.99,297.219,587.99z"/>
</g>
<g>
	<path fill="#BBBBBB" d="M434.363,325.715H160.684c-3.151,0-5.701,2.551-5.701,5.701v62.006h8.712c0.926,0,1.817,0.07,2.691,0.172
		v-56.477h262.277v153.943H182.879v11.402h251.484c3.151,0,5.701-2.549,5.701-5.701V331.416
		C440.065,328.266,437.516,325.715,434.363,325.715z"/>
</g>
<g>
	<path fill="#BBBBBB" d="M457.582,280.1H138.284c-12.594,0-23.213,10.885-23.213,23.481v89.841h22.806v-90.514H457.17v228.066
		H182.879v22.808h274.703c12.596,0,22.395-9.533,22.395-22.128V303.581C479.977,290.986,470.178,280.1,457.582,280.1z"/>
</g>
</svg>
