<?xml version="1.0" encoding="utf-8"?>
<!-- Generator: Adobe Illustrator 16.0.0, SVG Export Plug-In . SVG Version: 6.00 Build 0)  -->
<!DOCTYPE svg PUBLIC "-//W3C//DTD SVG 1.1//EN" "http://www.w3.org/Graphics/SVG/1.1/DTD/svg11.dtd">
<svg version="1.1" id="Layer_1" xmlns="http://www.w3.org/2000/svg" xmlns:xlink="http://www.w3.org/1999/xlink" x="0px" y="0px"
	 preserveAspectRatio="xMinyMin meet" viewBox="-0.023 140.086 479.722 359.763"
	 enable-background="new -0.023 140.086 479.722 359.763" xml:space="preserve">
<g>
	<path fill="#BBBBBB" d="M151.957,185.83L151.957,185.83 M151.3,184.712L117.84,302.53h49.67L57.04,437.394l21.675-116.912H17.931
		L151.3,184.712 M151.3,167.875c-0.219,0-0.438-0.368-0.657-0.359c-3.771,0.135-7.241,1.244-10.072,3.357
		c-0.701,0.525-1.376,1.007-2.01,1.643L5.198,306.654c-5.11,5.148-6.628,13.443-3.846,20.141
		c2.789,6.698,9.329,11.644,16.579,11.644h39.248L39.38,435.15c-1.47,8.029,2.668,15.734,10.067,19.188
		c2.437,1.144,5.021,1.536,7.584,1.536c5.225,0,10.336-2.35,13.829-6.573l110.474-133.308c4.435-5.356,5.382-13.805,2.42-20.099
		c-2.954-6.299-9.294-11.318-16.245-11.318h-25.994l26.88-94.938c0.56-1.741,0.867-2.74,0.867-4.677
		c0-9.792-7.829-17.087-17.57-17.087C151.563,167.875,151.432,167.875,151.3,167.875L151.3,167.875z"/>
	<g>
		<path fill="#BBBBBB" d="M57.04,307.604c-1.098,0-2.193-0.398-3.056-1.204c-1.814-1.681-1.919-4.522-0.231-6.339l58.352-62.842
			c1.685-1.818,4.526-1.918,6.34-0.231c1.815,1.683,1.92,4.523,0.236,6.342l-58.352,62.839
			C59.446,307.12,58.245,307.604,57.04,307.604z"/>
	</g>
	<g>
		<path fill="#BBBBBB" d="M115.884,343.513c-0.956,0-1.931-0.306-2.754-0.948c-1.954-1.524-2.306-4.336-0.779-6.304l17.454-22.441
			c1.516-1.945,4.339-2.305,6.296-0.778c1.954,1.515,2.314,4.338,0.788,6.292l-17.454,22.442
			C118.55,342.917,117.224,343.513,115.884,343.513z"/>
	</g>
	<g>
		<path fill="#BBBBBB" d="M101.916,361.466c-0.955,0-1.925-0.307-2.742-0.945c-1.964-1.524-2.314-4.339-0.789-6.296l3.489-4.487
			c1.506-1.954,4.34-2.327,6.296-0.791c1.952,1.516,2.313,4.342,0.787,6.299l-3.49,4.484
			C104.583,360.87,103.26,361.466,101.916,361.466z"/>
	</g>
</g>
<g>
	<path fill="#BBBBBB" d="M474.108,141.99c-3.872-2.48-8.835-2.539-12.756-0.165L200.221,299.679
		c1.125,9.179-1.423,18.744-7.336,25.886l-11.335,13.679l271.345-164.035l-30.725,278.928L271.98,408.214l121.601-142.637
		c2.162-2.539,1.866-6.354-0.686-8.528c-2.527-2.173-6.355-1.866-8.516,0.686L259.379,404.36l-105.15-32.151l-16.725,20.182
		l78.572,24.026l14.791,73.452c0.856,4.241,3.91,7.703,8.008,9.072c1.259,0.427,2.558,0.639,3.852,0.639
		c2.905,0,5.771-1.052,8.015-3.036l58.419-51.664l119.894,36.661c1.158,0.354,2.352,0.532,3.546,0.532
		c2.338,0,4.652-0.685,6.648-1.997c3-1.985,4.975-5.198,5.375-8.778l35.001-317.79C480.134,148.938,477.997,144.472,474.108,141.99z
		 M250.44,464.508l-8.063-40.049l39.644,12.122L250.44,464.508z"/>
</g>
</svg>
