<?xml version="1.0" encoding="utf-8"?>
<!-- Generator: Adobe Illustrator 16.0.0, SVG Export Plug-In . SVG Version: 6.00 Build 0)  -->
<!DOCTYPE svg PUBLIC "-//W3C//DTD SVG 1.1//EN" "http://www.w3.org/Graphics/SVG/1.1/DTD/svg11.dtd">
<svg version="1.1" id="Layer_1" xmlns="http://www.w3.org/2000/svg" xmlns:xlink="http://www.w3.org/1999/xlink" x="0px" y="0px"
	 preserveAspectRatio="xMinyMin meet" viewBox="-0.021 280.096 479.999 359.972"
	 enable-background="new -0.021 280.096 479.999 359.972" xml:space="preserve">
<path fill="#BBBBBB" d="M413.295,487.034c-16.744,0.088-31.299,4.12-43.485,10.082c-4.472-8.855-8.943-16.746-9.733-22.532
	c-0.876-6.751-1.929-10.871-0.876-18.938c1.053-8.066,5.786-19.551,5.698-20.428c-0.087-0.876-1.052-4.998-10.695-5.086
	c-9.645-0.087-17.974,1.842-18.938,4.384c-0.965,2.543-2.806,8.329-4.034,14.291c-1.665,8.768-19.287,40.066-29.37,56.462
	c-3.243-6.399-6.05-12.012-6.663-16.483c-0.877-6.75-1.929-10.871-0.877-18.938c1.053-8.066,5.786-19.552,5.698-20.429
	c-0.088-0.876-1.053-4.997-10.695-5.086c-9.645-0.087-17.975,1.842-18.938,4.384c-0.966,2.543-2.018,8.505-4.033,14.291
	c-2.017,5.787-25.425,58.041-31.562,71.543c-3.156,6.926-5.875,12.449-7.803,16.219l0,0c0,0-0.087,0.264-0.351,0.702
	c-1.666,3.242-2.629,4.997-2.629,4.997s0,0,0,0.088c-1.315,2.366-2.718,4.56-3.419,4.56c-0.526,0-1.491-6.313,0.175-14.905
	c3.507-18.148,11.836-46.38,11.749-47.343c0-0.526,1.578-5.437-5.436-7.979c-6.839-2.543-9.293,1.665-9.908,1.665
	c-0.613,0-1.052,1.49-1.052,1.49s7.627-31.738-14.553-31.738c-13.853,0-32.965,15.168-42.435,28.845
	c-5.961,3.244-18.675,10.17-32.265,17.622c-5.172,2.894-10.521,5.786-15.518,8.505c-0.351-0.352-0.702-0.789-1.052-1.141
	c-26.828-28.669-76.451-48.922-74.348-87.41c0.79-14.028,5.611-50.851,95.302-95.564c73.822-36.385,132.563-26.302,142.732-3.945
	c14.555,31.913-31.476,91.181-107.75,99.772c-29.108,3.244-44.363-7.979-48.221-12.187c-4.033-4.384-4.646-4.647-6.137-3.771
	c-2.455,1.314-0.877,5.26,0,7.54c2.279,5.962,11.661,16.483,27.53,21.656c14.028,4.559,48.133,7.101,89.428-8.855
	c46.204-17.886,82.326-67.597,71.717-109.242c-10.61-42.259-80.749-56.2-147.117-32.615
	c-39.454,14.028-82.238,36.122-113.011,64.879C3.859,390.588-1.927,420.31,0.439,432.76c8.505,44.188,69.438,72.945,93.811,94.25
	c-1.228,0.701-2.367,1.314-3.332,1.842c-12.187,6.048-58.654,30.334-70.227,56.022c-13.151,29.107,2.104,49.974,12.187,52.78
	c31.299,8.679,63.476-6.927,80.748-32.703s15.167-59.268,7.189-74.611c-0.087-0.175-0.175-0.35-0.35-0.525
	c3.156-1.841,6.4-3.77,9.557-5.609c6.225-3.683,12.362-7.103,17.622-9.907c-2.981,8.153-5.173,17.886-6.225,31.913
	c-1.315,16.484,5.436,37.876,14.29,46.292c3.945,3.684,8.592,3.771,11.573,3.771c10.345,0,14.992-8.592,20.165-18.763
	c6.312-12.449,12.011-26.916,12.011-26.916s-7.102,39.103,12.187,39.103c7.014,0,14.115-9.117,17.272-13.765
	c0,0.088,0,0.088,0,0.088s0.175-0.263,0.526-0.876c0.702-1.141,1.14-1.843,1.14-1.843s0-0.087,0-0.175
	c2.806-4.91,9.118-16.044,18.499-34.543c12.1-23.847,23.76-53.657,23.76-53.657s1.052,7.277,4.648,19.376
	c2.104,7.103,6.486,14.905,9.993,22.445c-2.806,3.945-4.56,6.137-4.56,6.137s0,0,0.088,0.088c-2.279,2.98-4.733,6.226-7.451,9.382
	c-9.558,11.398-20.954,24.461-22.533,28.231c-1.841,4.472-1.402,7.715,2.104,10.346c2.542,1.929,7.103,2.191,11.747,1.929
	c8.594-0.613,14.643-2.719,17.624-4.033c4.646-1.666,10.081-4.208,15.167-7.979c9.381-6.926,15.079-16.833,14.554-29.896
	c-0.264-7.189-2.63-14.379-5.523-21.129c0.876-1.228,1.666-2.455,2.542-3.684c14.817-21.656,26.303-45.415,26.303-45.415
	s1.051,7.276,4.646,19.375c1.754,6.138,5.349,12.801,8.505,19.288c-13.941,11.311-22.533,24.462-25.601,33.054
	c-5.524,15.956-1.229,23.146,6.926,24.812c3.683,0.789,8.943-0.965,12.8-2.63c4.91-1.579,10.696-4.297,16.22-8.329
	c9.382-6.927,18.412-16.571,17.886-29.634c-0.264-5.962-1.842-11.836-4.032-17.534c11.836-4.91,27.09-7.627,46.555-5.348
	c41.732,4.908,49.974,30.948,48.396,41.908c-1.577,10.958-10.346,16.921-13.238,18.762s-3.857,2.454-3.595,3.77
	c0.351,1.93,1.754,1.843,4.208,1.491c3.419-0.613,21.919-8.856,22.707-29.021C481.243,514.915,456.694,486.771,413.295,487.034z
	 M91.356,595.575c-13.852,15.079-33.141,20.778-41.47,15.956c-8.943-5.173-5.436-27.442,11.573-43.398
	c10.345-9.732,23.672-18.763,32.527-24.286c2.016-1.228,4.998-2.98,8.592-5.172c0.613-0.351,0.964-0.526,0.964-0.526l0,0
	c0.701-0.438,1.403-0.876,2.104-1.314C111.872,559.628,105.91,579.706,91.356,595.575z M192.181,527.014
	c-4.822,11.747-14.904,41.819-21.042,40.155c-5.26-1.403-8.505-24.199-1.052-46.73c3.771-11.311,11.748-24.812,16.395-30.072
	c7.541-8.417,15.869-11.224,17.885-7.804C206.911,487.034,195.162,519.649,192.181,527.014z M275.385,566.818
	c-2.018,1.052-3.945,1.753-4.822,1.228c-0.613-0.351,0.877-1.754,0.877-1.754s10.434-11.223,14.555-16.308
	c2.367-2.98,5.172-6.486,8.153-10.433c0,0.351,0,0.788,0,1.14C294.147,554.105,281.171,563.135,275.385,566.818z M339.561,552.176
	c-1.489-1.052-1.228-4.559,3.771-15.518c1.929-4.297,6.486-11.486,14.29-18.412c0.877,2.807,1.49,5.524,1.403,8.066
	C358.937,543.232,346.839,549.546,339.561,552.176z"/>
</svg>
