<?xml version="1.0" encoding="utf-8"?>
<!-- Generator: Adobe Illustrator 16.0.0, SVG Export Plug-In . SVG Version: 6.00 Build 0)  -->
<!DOCTYPE svg PUBLIC "-//W3C//DTD SVG 1.1//EN" "http://www.w3.org/Graphics/SVG/1.1/DTD/svg11.dtd">
<svg version="1.1" id="Layer_1" xmlns="http://www.w3.org/2000/svg" xmlns:xlink="http://www.w3.org/1999/xlink" x="0px" y="0px"
	 width="649.998px" height="201.698px" viewBox="0 0 649.998 201.698" enable-background="new 0 0 649.998 201.698"
	 xml:space="preserve">
<path fill="none" stroke="#231F20" stroke-miterlimit="10" d="M274.727,162.165"/>
<g>
	<path fill="#5D5D5D" d="M239.298,166.472h10.384c0.835,0,1.459,0.179,1.858,0.536c0.401,0.354,0.599,0.92,0.599,1.698
		c0,0.882-0.189,1.495-0.569,1.828c-0.376,0.332-1.069,0.5-2.083,0.5h-25.103c-0.863,0-1.512-0.192-1.94-0.58
		c-0.432-0.391-0.646-0.973-0.646-1.748c0-0.756,0.223-1.316,0.679-1.683c0.451-0.368,1.132-0.552,2.039-0.552h9.865V145.74h-6.308
		c-0.885,0-1.558-0.201-2.022-0.6c-0.462-0.398-0.693-0.973-0.693-1.729s0.214-1.322,0.646-1.699
		c0.429-0.376,1.075-0.565,1.938-0.565h9.48c0.58,0,1.039,0.118,1.377,0.354c0.33,0.236,0.5,0.563,0.5,0.97V166.472z
		 M233.311,131.832c0-2.331,0.209-3.798,0.632-4.403c0.418-0.602,1.319-0.904,2.699-0.904c1.341,0,2.221,0.256,2.655,0.762
		c0.429,0.506,0.646,1.71,0.646,3.606c0,1.854-0.201,3.004-0.599,3.44c-0.398,0.448-1.3,0.668-2.702,0.668
		c-1.38,0-2.281-0.209-2.699-0.615C233.52,133.976,233.311,133.124,233.311,131.832z"/>
	<path fill="#5D5D5D" d="M264.007,166.472V145.74h-0.613c-1.465,0-2.474-0.174-3.026-0.52c-0.55-0.344-0.822-0.945-0.822-1.809
		c0-0.797,0.222-1.377,0.679-1.731c0.451-0.357,1.188-0.533,2.199-0.533h1.52h3.109c0.577,0,1.033,0.118,1.355,0.354
		c0.327,0.236,0.486,0.563,0.486,0.97v2.199c1.572-1.465,3.133-2.551,4.675-3.249c1.539-0.701,3.142-1.053,4.802-1.053
		c3.254,0,5.819,1.015,7.682,3.043c1.866,2.025,2.801,4.829,2.801,8.41v14.65h1.517c1.078,0,1.855,0.179,2.331,0.536
		c0.473,0.354,0.709,0.92,0.709,1.698c0,0.841-0.25,1.438-0.759,1.792c-0.505,0.357-1.407,0.536-2.702,0.536h-7.149
		c-1.38,0-2.265-0.162-2.655-0.486c-0.385-0.324-0.577-0.94-0.577-1.842c0-0.841,0.223-1.424,0.676-1.745
		c0.454-0.327,1.303-0.489,2.556-0.489h1.132v-13.457c0-2.521-0.572-4.447-1.715-5.772c-1.144-1.324-2.804-1.987-4.98-1.987
		c-2.199,0-4.142,0.742-5.824,2.229c-1.679,1.489-2.521,3.334-2.521,5.53v13.457h1.132c1.292,0,2.166,0.162,2.62,0.489
		c0.451,0.321,0.679,0.904,0.679,1.745c0,0.901-0.195,1.518-0.583,1.842s-1.336,0.486-2.848,0.486h-5.888h-1.745
		c-0.882,0-1.547-0.189-1.987-0.566c-0.442-0.377-0.665-0.965-0.665-1.762c0-0.863,0.253-1.448,0.759-1.768
		c0.511-0.311,1.495-0.467,2.963-0.467H264.007z"/>
	<path fill="#5D5D5D" d="M324.625,142.958c1.059,0,1.831,0.185,2.313,0.548c0.489,0.365,0.73,0.95,0.73,1.75
		c0,0.754-0.225,1.319-0.682,1.696c-0.452,0.379-1.131,0.566-2.035,0.566h-13.1v10.805c0,3.537,0.454,5.862,1.372,6.986
		c0.918,1.121,2.488,1.683,4.706,1.683c1.962,0,4.315-0.569,7.056-1.713c2.739-1.144,4.427-1.715,5.075-1.715
		c0.604,0,1.116,0.212,1.534,0.644c0.423,0.434,0.632,0.962,0.632,1.586c0,0.714-0.264,1.333-0.792,1.86
		c-0.527,0.527-1.429,1.042-2.699,1.536c-2.114,0.842-4.017,1.457-5.71,1.845c-1.693,0.388-3.282,0.58-4.769,0.58
		c-2.526,0-4.643-0.401-6.357-1.21c-1.715-0.811-2.992-2.012-3.833-3.605c-0.434-0.756-0.742-1.652-0.923-2.686
		c-0.184-1.036-0.275-2.633-0.275-4.788v-1.003v-10.805h-5.497c-0.907,0-1.567-0.179-1.979-0.533
		c-0.404-0.354-0.61-0.932-0.61-1.729c0-0.885,0.278-1.489,0.841-1.813c0.561-0.324,1.756-0.484,3.589-0.484h3.656v-6.629v-1.718
		c0-0.927,0.198-1.611,0.599-2.054c0.398-0.439,1.02-0.662,1.861-0.662c0.95,0,1.606,0.27,1.972,0.808
		c0.368,0.539,0.552,1.768,0.552,3.687v6.568H324.625z"/>
	<path fill="#5D5D5D" d="M344.617,157.514c0.17,3.104,1.22,5.506,3.149,7.196c1.936,1.692,4.568,2.539,7.91,2.539
		c2.523,0,5.272-0.673,8.252-2.02c2.974-1.348,4.771-2.023,5.403-2.023c0.644,0,1.182,0.203,1.616,0.613
		c0.429,0.409,0.643,0.918,0.643,1.522c0,0.624-0.225,1.195-0.676,1.715c-0.456,0.517-1.176,1.025-2.166,1.521
		c-2.16,1.055-4.387,1.863-6.685,2.424c-2.292,0.563-4.573,0.844-6.838,0.844c-4.92,0-8.856-1.418-11.808-4.258
		c-2.952-2.831-4.432-6.591-4.432-11.271c0-4.764,1.562-8.625,4.689-11.577c3.128-2.957,7.201-4.434,12.226-4.434
		c4.552,0,8.328,1.377,11.324,4.14c2.996,2.76,4.497,6.104,4.497,10.026c0,1.21-0.259,2.018-0.759,2.428
		c-0.512,0.409-1.886,0.615-4.129,0.615h-0.483H344.617z M344.776,153.276h21.06c-0.324-2.564-1.396-4.631-3.216-6.195
		c-1.825-1.563-4.062-2.342-6.718-2.342c-2.864,0-5.277,0.753-7.245,2.263C346.7,148.51,345.403,150.602,344.776,153.276z"/>
	<path fill="#5D5D5D" d="M392.134,166.472h10.736c0.841,0,1.462,0.179,1.863,0.536c0.396,0.354,0.594,0.92,0.594,1.698
		c0,0.882-0.188,1.495-0.561,1.828c-0.38,0.332-1.072,0.5-2.089,0.5h-21.153c-0.841,0-1.479-0.192-1.907-0.58
		c-0.435-0.391-0.648-0.973-0.648-1.748c0-0.756,0.22-1.316,0.659-1.683c0.445-0.368,1.127-0.552,2.056-0.552h5.63V145.74h-2.199
		c-2.089,0-3.397-0.168-3.914-0.501c-0.517-0.335-0.775-0.945-0.775-1.827c0-0.756,0.209-1.322,0.633-1.699
		c0.418-0.376,1.061-0.565,1.924-0.565h7.371c0.583,0,1.022,0.112,1.331,0.338c0.297,0.228,0.45,0.555,0.45,0.986v5.5
		c2.045-2.567,4.184-4.475,6.404-5.725c2.221-1.251,4.612-1.878,7.18-1.878c1.918,0,3.474,0.388,4.655,1.165
		c1.188,0.775,1.781,1.779,1.781,3.008c0,0.8-0.297,1.503-0.891,2.119c-0.594,0.612-1.242,0.923-1.951,0.923
		c-0.5,0-1.336-0.329-2.507-0.986c-1.176-0.657-2.227-0.989-3.161-0.989c-1.682,0-3.452,0.599-5.315,1.797
		c-1.869,1.196-3.931,3.09-6.195,5.676V166.472z"/>
	<path fill="#5D5D5D" d="M442.493,166.925c-1.765,1.597-3.688,2.817-5.772,3.655c-2.083,0.842-4.222,1.265-6.415,1.265
		c-3.221,0-5.811-0.896-7.783-2.688c-1.974-1.786-2.958-4.117-2.958-6.983c0-3.408,1.309-6.053,3.925-7.93
		c2.622-1.872,6.306-2.812,11.05-2.812c1.253,0,2.512,0.079,3.787,0.241c1.27,0.162,2.573,0.415,3.914,0.762v-0.226
		c0-2.481-0.594-4.312-1.781-5.5s-3.028-1.778-5.53-1.778c-1.682,0-3.562,0.451-5.629,1.355c-2.072,0.909-3.441,1.36-4.106,1.36
		c-0.626,0-1.144-0.253-1.556-0.762c-0.412-0.503-0.615-1.156-0.615-1.954c0-1.272,1.192-2.353,3.578-3.234
		c2.381-0.886,5.426-1.328,9.137-1.328c3.793,0,6.662,0.968,8.603,2.895c1.94,1.932,2.914,4.782,2.914,8.559v14.65h1.583
		c1.533,0,2.556,0.162,3.072,0.489c0.518,0.321,0.775,0.904,0.775,1.745c0,0.775-0.214,1.357-0.643,1.748
		c-0.435,0.388-1.078,0.58-1.946,0.58h-5.074c-0.604,0-1.099-0.185-1.489-0.55c-0.391-0.368-0.644-0.896-0.775-1.583
		L442.493,166.925z M442.24,156.737c-1.188-0.388-2.336-0.674-3.446-0.857c-1.111-0.182-2.216-0.272-3.315-0.272
		c-3.325,0-5.942,0.558-7.86,1.68c-1.919,1.121-2.881,2.633-2.881,4.526c0,1.468,0.6,2.677,1.798,3.623
		c1.192,0.95,2.721,1.424,4.573,1.424c2.737,0,5.277-0.715,7.619-2.149c2.342-1.436,3.513-2.928,3.513-4.48V156.737z"/>
	<path fill="#5D5D5D" d="M484.546,143.087v-0.13c0-0.711,0.203-1.233,0.616-1.571c0.406-0.333,1.05-0.501,1.907-0.501
		c0.885,0,1.495,0.262,1.83,0.775c0.33,0.522,0.501,1.589,0.501,3.205v6.017c0,0.8-0.204,1.396-0.616,1.795
		c-0.412,0.401-1.027,0.599-1.842,0.599c-0.582,0-1.082-0.168-1.506-0.503c-0.423-0.332-0.935-1.028-1.533-2.086
		c-1.039-1.745-2.293-3.067-3.771-3.964c-1.479-0.891-3.178-1.341-5.096-1.341c-3.359,0-6.097,0.995-8.202,2.977
		c-2.1,1.984-3.149,4.549-3.149,7.698c0,3.214,1.006,5.838,3.023,7.875c2.012,2.039,4.606,3.06,7.778,3.06
		c1.445,0,2.82-0.201,4.123-0.6c1.308-0.398,2.539-0.998,3.705-1.795c0.412-0.258,0.962-0.657,1.654-1.195
		c1.396-1.144,2.501-1.715,3.293-1.715c0.671,0,1.215,0.208,1.638,0.629c0.418,0.421,0.627,0.965,0.627,1.636
		c0,1.701-1.61,3.446-4.832,5.225c-3.227,1.778-6.646,2.669-10.273,2.669c-4.679,0-8.576-1.503-11.688-4.496
		c-3.117-2.999-4.678-6.743-4.678-11.229c0-4.482,1.55-8.231,4.656-11.238c3.111-3.01,6.986-4.514,11.643-4.514
		c1.644,0,3.287,0.223,4.937,0.662C480.94,141.476,482.693,142.161,484.546,143.087z"/>
	<path fill="#5D5D5D" d="M523.395,142.958c1.055,0,1.83,0.185,2.313,0.548c0.484,0.365,0.731,0.95,0.731,1.75
		c0,0.754-0.23,1.319-0.682,1.696c-0.456,0.379-1.132,0.566-2.039,0.566h-13.1v10.805c0,3.537,0.456,5.862,1.374,6.986
		c0.918,1.121,2.484,1.683,4.705,1.683c1.963,0,4.315-0.569,7.053-1.713c2.738-1.144,4.432-1.715,5.08-1.715
		c0.599,0,1.115,0.212,1.533,0.644c0.424,0.434,0.633,0.962,0.633,1.586c0,0.714-0.264,1.333-0.792,1.86
		c-0.527,0.527-1.429,1.042-2.704,1.536c-2.111,0.842-4.014,1.457-5.706,1.845c-1.693,0.388-3.282,0.58-4.771,0.58
		c-2.523,0-4.64-0.401-6.355-1.21c-1.715-0.811-2.995-2.012-3.831-3.605c-0.435-0.756-0.742-1.652-0.924-2.686
		c-0.187-1.036-0.274-2.633-0.274-4.788v-1.003v-10.805h-5.503c-0.901,0-1.561-0.179-1.974-0.533
		c-0.406-0.354-0.615-0.932-0.615-1.729c0-0.885,0.28-1.489,0.841-1.813c0.566-0.324,1.759-0.484,3.596-0.484h3.655v-6.629v-1.718
		c0-0.927,0.198-1.611,0.594-2.054c0.401-0.439,1.022-0.662,1.863-0.662c0.951,0,1.605,0.27,1.974,0.808
		c0.368,0.539,0.55,1.768,0.55,3.687v6.568H523.395z"/>
	<path fill="#5D5D5D" d="M557.328,166.472h10.384c0.841,0,1.462,0.179,1.858,0.536c0.401,0.354,0.599,0.92,0.599,1.698
		c0,0.882-0.187,1.495-0.566,1.828c-0.379,0.332-1.071,0.5-2.083,0.5h-25.105c-0.863,0-1.512-0.192-1.94-0.58
		c-0.429-0.391-0.643-0.973-0.643-1.748c0-0.756,0.22-1.316,0.676-1.683c0.451-0.368,1.133-0.552,2.039-0.552h9.867V145.74h-6.311
		c-0.885,0-1.561-0.201-2.022-0.6s-0.692-0.973-0.692-1.729s0.214-1.322,0.643-1.699c0.435-0.376,1.077-0.565,1.94-0.565h9.478
		c0.582,0,1.044,0.118,1.379,0.354c0.33,0.236,0.501,0.563,0.501,0.97V166.472z M551.342,131.832c0-2.331,0.209-3.798,0.632-4.403
		c0.418-0.602,1.319-0.904,2.699-0.904c1.342,0,2.221,0.256,2.655,0.762c0.429,0.506,0.643,1.71,0.643,3.606
		c0,1.854-0.197,3.004-0.599,3.44c-0.396,0.448-1.298,0.668-2.699,0.668c-1.38,0-2.281-0.209-2.699-0.615
		C551.551,133.976,551.342,133.124,551.342,131.832z"/>
	<path fill="#5D5D5D" d="M579.256,145.74c-1.418,0-2.396-0.174-2.925-0.52c-0.527-0.344-0.791-0.945-0.791-1.809
		c0-0.756,0.214-1.322,0.648-1.699c0.429-0.376,1.072-0.565,1.936-0.565h9.059c1.231,0,2.051,0.167,2.457,0.5
		c0.407,0.338,0.616,0.924,0.616,1.765c0,0.863-0.27,1.465-0.809,1.809c-0.538,0.346-1.533,0.52-2.979,0.52h-1.192l8.41,20.928
		l9.351-20.928h-1.945c-1.66,0-2.782-0.168-3.364-0.501c-0.577-0.335-0.869-0.945-0.869-1.827c0-0.841,0.198-1.427,0.61-1.765
		c0.412-0.333,1.231-0.5,2.457-0.5h10c0.862,0,1.506,0.189,1.94,0.565c0.429,0.377,0.643,0.943,0.643,1.699
		c0,0.863-0.264,1.465-0.791,1.809c-0.528,0.346-1.501,0.52-2.925,0.52h-0.583l-10.675,23.58c-0.539,1.185-1.072,1.956-1.6,2.313
		c-0.528,0.354-1.303,0.531-2.314,0.531c-0.924,0-1.644-0.171-2.149-0.515c-0.512-0.346-1.034-1.121-1.572-2.33L579.256,145.74z"/>
	<path fill="#5D5D5D" d="M622.892,157.514c0.177,3.104,1.227,5.506,3.156,7.196c1.929,1.692,4.562,2.539,7.91,2.539
		c2.523,0,5.271-0.673,8.245-2.02c2.979-1.348,4.777-2.023,5.404-2.023c0.648,0,1.182,0.203,1.616,0.613
		c0.434,0.409,0.648,0.918,0.648,1.522c0,0.624-0.231,1.195-0.682,1.715c-0.456,0.517-1.171,1.025-2.166,1.521
		c-2.155,1.055-4.381,1.863-6.679,2.424c-2.298,0.563-4.579,0.844-6.845,0.844c-4.914,0-8.85-1.418-11.802-4.258
		c-2.958-2.831-4.431-6.591-4.431-11.271c0-4.764,1.562-8.625,4.689-11.577c3.122-2.957,7.201-4.434,12.225-4.434
		c4.552,0,8.323,1.377,11.319,4.14c3.001,2.76,4.496,6.104,4.496,10.026c0,1.21-0.253,2.018-0.759,2.428
		c-0.505,0.409-1.88,0.615-4.122,0.615h-0.489H622.892z M623.057,153.276h21.055c-0.319-2.564-1.392-4.631-3.216-6.195
		c-1.825-1.563-4.058-2.342-6.713-2.342c-2.869,0-5.282,0.753-7.244,2.263C624.976,148.51,623.684,150.602,623.057,153.276z"/>
</g>
<path fill="#F16739" d="M100.847,0c55.7,0,100.85,45.148,100.85,100.847s-45.15,100.851-100.85,100.851
	c-18.443,0-35.716-4.978-50.593-13.625c0.686-1.924,1.267-3.493,1.641-4.364c1.769-4.126,12.975-23.294,16.51-25.358
	c3.541-2.064,10.028-2.949,19.759-6.489c9.733-3.538,17.398-11.206,21.527-12.091c4.128-0.883,6.784-1.174,12.682-7.369
	c5.896-6.192,12.382-11.206,17.102-12.545c4.716-1.341,6.189-3.969,13.566-6.621c7.366-2.655,15.626-7.963,15.923-12.388
	c0.291-4.425-5.58-8.399-13.567-9.73c-9.733-1.622-24.699,11.575-24.699,11.575c-3.131,1.786-10.692,3.529-14.817,4.142
	c-1.71,3.812-3.175,6.525-3.175,6.525c-1.734,4.606-10.975,4.054-10.975,4.054c-0.415,1.553-3.051,4.854-4.076,5.896
	c-1.845,1.861-11.657,2.608-18.501,2.829c-3.298,0.106-9.448-3.42-11.597-3.258c-8.976,0.674-26.14,8.796-21.1,24.608
	c0,0-13.082-16.156-1.068-26.567c17.177-14.887,17.393-26.991,18.362-27.786c1.928-1.578,4.54,0.198,5.056-0.907
	c0.768-1.649-4.125-7.727-2.684-8.411c1.44-0.679,6.693,7.025,7.874,4.447c1.176-2.581-1.228-6.492-0.354-6.66
	c1.334-0.253,4.59,6.121,11.167,7.633c1.88,0.432,7.762,0.371,7.888,1.014c0.126,0.643-5.437,1.457-6.376,4.697
	c-0.434,1.487-0.682,7.936,0.852,9.64c0.731,0.808-2.661-1.457-5.808-1.089c-3.759,0.445-9.011,3.29-5.694,7.271
	c2.778,3.336,18.906,4.455,22.784-1.446c3.683-5.606,5.78-14.834,6.207-21.01c3.548,1.718,12.467,0.305,14.647-1.113
	c2.034-1.322,2.391-5.39,0.308-8.537c0,0,3.232-0.209,4.447-0.816c3.332-1.666,4.238-5.475,3.375-9.71c0,0,3.271,2.677,3.996,7.479
	c0.707,0.134,1.457,0.247,2.21,0.313c4.425,0.388,11.48-0.899,11.48-0.899s9.719,2.562,16.002,2.301
	c6.28-0.264,13.905-5,14.427-8.664c0.525-3.667-4.189-5.233-6.542-5.494c-2.355-0.261-16.142-2.177-21.062-3.315
	c-4.961-1.151-16.434-4.538-21.145-5.06c-4.708-0.525-20.686,3.598-20.697,3.601C93.52,55.312,79.832,49.76,69,50.425
	c-4.747,0.289-13.862,13.268-18.285,19.759c-4.424,6.484-22.116,37.74-25.949,43.639c-3.834,5.898-14.743,22.115-16.218,26.246
	c-0.079,0.218-0.192,0.484-0.303,0.742C2.949,128.555,0,115.049,0,100.847C0,45.148,45.152,0,100.847,0z"/>
<g>
	<path fill="#5D5D5D" d="M225.703,107.438V93.3c0-2.331,0.44-3.999,1.314-5.005c0.874-1.006,2.287-1.509,4.247-1.509
		c2.174,0,3.892,1.481,5.165,4.447c0.844,1.8,1.616,3.15,2.303,4.051c2.224,2.858,5.508,5.151,9.848,6.872
		c4.34,1.721,9.133,2.581,14.377,2.581c5.613,0,10.115-1.139,13.504-3.417c3.389-2.275,5.082-5.269,5.082-8.974
		c0-3.76-1.363-6.435-4.087-8.023c-2.729-1.588-7.402-2.383-14.021-2.383h-4.37c-10.802,0-19.037-1.88-24.704-5.64
		c-5.668-3.76-8.499-9.213-8.499-16.362c0-6.992,2.766-12.42,8.301-16.285c5.536-3.864,13.303-5.799,23.313-5.799
		c4.079,0,8.234,0.569,12.473,1.709c4.236,1.138,6.459,1.707,6.671,1.707c0.585,0,1.696-0.517,3.334-1.55
		c1.644-1.031,3.26-1.547,4.849-1.547c1.798,0,3.139,0.663,4.013,1.984c0.874,1.325,1.309,3.309,1.309,5.959v9.293
		c0,2.806-0.426,4.832-1.27,6.077c-0.846,1.245-2.199,1.866-4.051,1.866c-1.589,0-3.546-1.35-5.879-4.051
		c-1.641-1.853-2.991-3.257-4.052-4.208c-2.806-2.594-5.797-4.46-8.974-5.602c-3.177-1.138-6.913-1.707-11.203-1.707
		c-4.975,0-8.988,1.099-12.03,3.295c-3.048,2.199-4.571,4.991-4.571,8.38c0,3.337,1.561,5.72,4.689,7.149
		c3.125,1.429,9.848,2.251,20.174,2.463c11.014,0.264,19.064,2.185,24.149,5.758c5.085,3.576,7.625,9.095,7.625,16.562
		c0,7.149-2.809,12.869-8.421,17.156c-5.61,4.291-13.182,6.435-22.714,6.435c-3.021,0-6.385-0.277-10.09-0.833
		c-3.705-0.558-8.369-1.497-13.982-2.819c-1.853,1.218-3.441,2.13-4.766,2.74c-1.319,0.607-2.433,0.912-3.334,0.912
		c-1.855,0-3.271-0.648-4.247-1.945C226.192,111.74,225.703,109.874,225.703,107.438z"/>
	<path fill="#5D5D5D" d="M331.303,82.734v23.431c0,2.119-0.439,3.815-1.313,5.085c-0.869,1.27-1.996,1.907-3.371,1.907h-14.697
		c-2.065,0-3.626-0.478-4.685-1.432c-1.061-0.951-1.588-2.383-1.588-4.288c0-2.119,0.621-3.562,1.863-4.329
		c1.248-0.77,3.907-1.151,7.986-1.151h3.812V20.617h-3.257c-4.555,0-7.497-0.409-8.816-1.231c-1.325-0.822-1.987-2.317-1.987-4.488
		c0-1.905,0.542-3.337,1.63-4.288c1.083-0.954,2.661-1.432,4.727-1.432h15.168c1.429,0,2.545,0.292,3.337,0.874
		c0.797,0.583,1.192,1.377,1.192,2.383V69.39l22.956-19.224c-1.748-0.742-3.034-1.561-3.854-2.463
		c-0.819-0.901-1.231-1.959-1.231-3.177c0-1.588,0.583-2.781,1.748-3.576c1.166-0.794,2.858-1.19,5.085-1.19h21.526
		c2.013,0,3.546,0.451,4.607,1.349c1.061,0.902,1.588,2.251,1.588,4.052c0,3.177-2.572,5.032-7.706,5.56
		c-1.007,0.107-1.798,0.212-2.381,0.319c-2.177,0.264-4.557,1.1-7.151,2.501s-5.212,3.271-7.861,5.602L347.107,69.23l30.107,32.727
		h6.833c2.275,0,3.902,0.424,4.881,1.27c0.979,0.847,1.474,2.252,1.474,4.211c0,1.853-0.544,3.269-1.633,4.25
		c-1.083,0.979-2.66,1.47-4.722,1.47h-21.527c-2.33,0-4.023-0.398-5.084-1.192c-1.062-0.795-1.589-2.064-1.589-3.812
		c0-1.429,0.517-2.66,1.55-3.694c1.033-1.033,2.578-1.866,4.646-2.501L338.449,76.22L331.303,82.734z"/>
	<path fill="#5D5D5D" d="M472.887,76.539c0,11.333-3.87,20.598-11.599,27.801c-7.734,7.201-17.768,10.802-30.108,10.802
		c-12.286,0-22.29-3.601-30.024-10.802c-7.729-7.204-11.594-16.469-11.594-27.801s3.864-20.587,11.594-27.763
		c7.734-7.177,17.738-10.764,30.024-10.764s22.308,3.601,30.069,10.805C469.006,56.018,472.887,65.259,472.887,76.539z
		 M457.632,27.21c0,0.742-0.253,1.363-0.753,1.866c-0.506,0.503-1.127,0.753-1.869,0.753h-50.276c-0.748,0-1.369-0.25-1.869-0.753
		c-0.506-0.503-0.753-1.124-0.753-1.866v-4.37c0-0.742,0.247-1.336,0.753-1.787c0.5-0.451,1.121-0.676,1.869-0.676h50.276
		c0.742,0,1.363,0.226,1.869,0.676c0.5,0.451,0.753,1.044,0.753,1.787V27.21z M431.18,104.022c8.158,0,14.843-2.581,20.06-7.746
		c5.217-5.162,7.822-11.742,7.822-19.737c0-7.999-2.617-14.603-7.861-19.82s-11.918-7.825-20.021-7.825
		c-8.097,0-14.76,2.608-19.977,7.825s-7.822,11.821-7.822,19.82c0,8.048,2.595,14.642,7.784,19.779
		C416.354,101.452,423.028,104.022,431.18,104.022z"/>
	<path fill="#5D5D5D" d="M481.974,107.438V93.3c0-2.331,0.434-3.999,1.309-5.005c0.873-1.006,2.286-1.509,4.249-1.509
		c2.171,0,3.897,1.481,5.167,4.447c0.847,1.8,1.61,3.15,2.304,4.051c2.221,2.858,5.502,5.151,9.851,6.872
		c4.337,1.721,9.131,2.581,14.375,2.581c5.612,0,10.109-1.139,13.506-3.417c3.387-2.275,5.08-5.269,5.08-8.974
		c0-3.76-1.363-6.435-4.09-8.023c-2.732-1.588-7.405-2.383-14.018-2.383h-4.371c-10.802,0-19.041-1.88-24.703-5.64
		c-5.668-3.76-8.499-9.213-8.499-16.362c0-6.992,2.765-12.42,8.295-16.285c5.536-3.864,13.309-5.799,23.319-5.799
		c4.073,0,8.234,0.569,12.473,1.709c4.232,1.138,6.453,1.707,6.668,1.707c0.583,0,1.693-0.517,3.337-1.55
		c1.644-1.031,3.26-1.547,4.849-1.547c1.797,0,3.133,0.663,4.007,1.984c0.874,1.325,1.314,3.309,1.314,5.959v9.293
		c0,2.806-0.424,4.832-1.271,6.077c-0.852,1.245-2.204,1.866-4.051,1.866c-1.589,0-3.552-1.35-5.882-4.051
		c-1.644-1.853-2.991-3.257-4.046-4.208c-2.81-2.594-5.8-4.46-8.978-5.602c-3.177-1.138-6.909-1.707-11.203-1.707
		c-4.979,0-8.987,1.099-12.033,3.295c-3.051,2.199-4.567,4.991-4.567,8.38c0,3.337,1.561,5.72,4.688,7.149
		c3.122,1.429,9.851,2.251,20.175,2.463c11.011,0.264,19.063,2.185,24.148,5.758c5.085,3.576,7.625,9.095,7.625,16.562
		c0,7.149-2.81,12.869-8.422,17.156c-5.612,4.291-13.182,6.435-22.714,6.435c-3.019,0-6.382-0.277-10.093-0.833
		c-3.705-0.558-8.367-1.497-13.979-2.819c-1.853,1.218-3.441,2.13-4.766,2.74c-1.325,0.607-2.436,0.912-3.337,0.912
		c-1.853,0-3.271-0.648-4.249-1.945C482.457,111.74,481.974,109.874,481.974,107.438z"/>
	<path fill="#5D5D5D" d="M572.159,101.958V20.617h-1.506c-3.606,0-6.08-0.423-7.427-1.27c-1.353-0.85-2.028-2.331-2.028-4.45
		c0-1.905,0.544-3.337,1.627-4.288c1.088-0.954,2.66-1.432,4.728-1.432h12.077c1.429,0,2.539,0.292,3.331,0.874
		c0.797,0.583,1.192,1.377,1.192,2.383v35.984c3.865-3.601,7.691-6.261,11.479-7.982c3.787-1.72,7.718-2.583,11.797-2.583
		c7.993,0,14.287,2.49,18.866,7.468s6.871,11.863,6.871,20.653v35.984h3.732c2.649,0,4.552,0.438,5.718,1.309
		c1.165,0.874,1.748,2.265,1.748,4.172c0,1.905-0.528,3.337-1.589,4.288c-1.062,0.954-2.649,1.432-4.767,1.432h-21.125
		c-2.49,0-4.172-0.412-5.047-1.231c-0.874-0.821-1.308-2.316-1.308-4.488c0-2.119,0.538-3.562,1.627-4.329
		c1.083-0.77,3.139-1.151,6.157-1.151h2.775V68.912c0-6.195-1.401-10.923-4.205-14.177c-2.809-3.257-6.888-4.887-12.236-4.887
		c-5.453,0-10.236,1.828-14.337,5.481c-4.106,3.655-6.157,8.182-6.157,13.583v33.046h2.782c3.177,0,5.321,0.396,6.432,1.19
		c1.116,0.794,1.671,2.224,1.671,4.29c0,2.172-0.439,3.667-1.313,4.488c-0.874,0.819-2.557,1.231-5.041,1.231h-21.131
		c-2.067,0-3.612-0.478-4.646-1.432c-1.033-0.951-1.55-2.383-1.55-4.288c0-2.119,0.621-3.562,1.869-4.329
		c1.242-0.77,3.661-1.151,7.267-1.151H572.159z"/>
</g>
</svg>
